<?xml version="1.0" encoding="UTF-8"?>
<svg version="1.1" xmlns="http://www.w3.org/2000/svg" width="35" height="42">
<path d="M0 0 C11.55 0 23.1 0 35 0 C35 13.86 35 27.72 35 42 C23.45 42 11.9 42 0 42 C0 28.14 0 14.28 0 0 Z " fill="#212121" transform="translate(0,0)"/>
<path d="M0 0 C2.31 0 4.62 0 7 0 C10.56080922 6.72759448 14.02581681 13.61604208 16 21 C15.67 21.66 15.34 22.32 15 23 C13.35 23 11.7 23 10 23 C9.34 21.68 8.68 20.36 8 19 C7.67 20.32 7.34 21.64 7 23 C4.69 23 2.38 23 0 23 C0 15.41 0 7.82 0 0 Z " fill="#E8E8E8" transform="translate(8,11)"/>
<path d="M0 0 C2.31 0 4.62 0 7 0 C7 7.59 7 15.18 7 23 C4.69 23 2.38 23 0 23 C-0.103125 22.236875 -0.20625 21.47375 -0.3125 20.6875 C-0.74744765 17.97020993 -0.74744765 17.97020993 -2.5625 16.5625 C-4 15 -4 15 -4.4375 12.375 C-3.84529052 7.8065269 -2.03922535 4.09665807 0 0 Z " fill="#F3F3F3" transform="translate(26,11)"/>
<path d="M0 0 C2.7018318 1.3509159 3.28373434 3.23591686 4.40234375 5.9453125 C5.39322022 9.35185513 5.18565142 12.47262309 5 16 C3.35 16 1.7 16 0 16 C0 10.72 0 5.44 0 0 Z " fill="#FBFBFB" transform="translate(9,18)"/>
<path d="M0 0 C0.66 0.66 1.32 1.32 2 2 C1.67 2.99 1.34 3.98 1 5 C0.77281504 7.56634861 0.58391816 10.11678107 0.4375 12.6875 C0.39431641 13.38939453 0.35113281 14.09128906 0.30664062 14.81445312 C0.2008264 16.54275206 0.09993419 18.2713511 0 20 C-0.33 20 -0.66 20 -1 20 C-1.02888514 16.85418577 -1.04675923 13.70840531 -1.0625 10.5625 C-1.07087891 9.66466797 -1.07925781 8.76683594 -1.08789062 7.84179688 C-1.09111328 6.98779297 -1.09433594 6.13378906 -1.09765625 5.25390625 C-1.10551147 4.06776733 -1.10551147 4.06776733 -1.11352539 2.85766602 C-1 1 -1 1 0 0 Z " fill="#B2B2B2" transform="translate(9,14)"/>
</svg>
